<svg width="412" height="169" viewBox="0 0 412 169" fill="none" xmlns="http://www.w3.org/2000/svg">
<g filter="url(#filter0_d_202_80)">
<path d="M-0.261151 -3.04135e-06L412.379 9.25235e-06L412.5 5.50001L412 58.7485C315.192 54.1519 197.954 50.4883 6.3963 155.761C4.25401 156.817 2.12297 157.884 0.00315902 158.961L-0.500096 159.217L-0.261151 -3.04135e-06Z" fill="url(#paint0_linear_202_80)"/>
<path d="M-0.261151 -3.04135e-06L412.379 9.25235e-06L412.5 5.50001L412 58.7485C315.192 54.1519 197.954 50.4883 6.3963 155.761C4.25401 156.817 2.12297 157.884 0.00315902 158.961L-0.500096 159.217L-0.261151 -3.04135e-06Z" stroke="url(#paint1_linear_202_80)"/>
</g>
<defs>
<filter id="filter0_d_202_80" x="-5.00122" y="-0.5" width="422.001" height="168.533" filterUnits="userSpaceOnUse" color-interpolation-filters="sRGB">
<feFlood flood-opacity="0" result="BackgroundImageFix"/>
<feColorMatrix in="SourceAlpha" type="matrix" values="0 0 0 0 0 0 0 0 0 0 0 0 0 0 0 0 0 0 127 0" result="hardAlpha"/>
<feOffset dy="4"/>
<feGaussianBlur stdDeviation="2"/>
<feComposite in2="hardAlpha" operator="out"/>
<feColorMatrix type="matrix" values="0 0 0 0 0 0 0 0 0 0 0 0 0 0 0 0 0 0 0.25 0"/>
<feBlend mode="normal" in2="BackgroundImageFix" result="effect1_dropShadow_202_80"/>
<feBlend mode="normal" in="SourceGraphic" in2="effect1_dropShadow_202_80" result="shape"/>
</filter>
<linearGradient id="paint0_linear_202_80" x1="204.351" y1="-3.91029" x2="227" y2="76" gradientUnits="userSpaceOnUse">
<stop stop-color="#C90BBC"/>
<stop offset="1" stop-color="#63055D"/>
</linearGradient>
<linearGradient id="paint1_linear_202_80" x1="299.045" y1="-145.252" x2="304.752" y2="153.384" gradientUnits="userSpaceOnUse">
<stop stop-color="#A24AC3"/>
<stop offset="1" stop-color="#4D235D"/>
</linearGradient>
</defs>
</svg>
